<svg xmlns="http://www.w3.org/2000/svg" viewBox="0 0 480 280">
    <rect width="480" height="280" fill="#f8f9fb"/>
    <!-- hose path -->
    <path d="M80 180 C80 90 180 80 240 120 C300 160 380 150 400 100" fill="none" stroke="#e5e7eb" stroke-width="18" stroke-linecap="round"/>
    <path d="M80 180 C80 90 180 80 240 120 C300 160 380 150 400 100" fill="none" stroke="#9ca3af" stroke-width="14" stroke-linecap="round"/>
    <path d="M80 180 C80 90 180 80 240 120 C300 160 380 150 400 100" fill="none" stroke="#e5e7eb" stroke-width="8" stroke-linecap="round" stroke-dasharray="14 8"/>
    <!-- end fittings -->
    <rect x="60" y="168" width="24" height="24" rx="2" fill="#d1d5db" stroke="#6b7280" stroke-width="2"/>
    <rect x="60" y="172" width="10" height="16" rx="1" fill="#9ca3af" stroke="#6b7280" stroke-width="1"/>
    <rect x="396" y="88" width="24" height="24" rx="2" fill="#d1d5db" stroke="#6b7280" stroke-width="2"/>
    <rect x="410" y="92" width="10" height="16" rx="1" fill="#9ca3af" stroke="#6b7280" stroke-width="1"/>
    <!-- size label on hose -->
    <text x="240" y="168" font-family="Arial,sans-serif" font-size="11" fill="#6b7280" text-anchor="middle">Ø6 / Ø8 / Ø10</text>
    <text x="240" y="228" font-family="Arial,sans-serif" font-size="13" fill="#6b7280" text-anchor="middle" letter-spacing="0.5">Pneumatisk slang</text>
  </svg>
